<svg xmlns="http://www.w3.org/2000/svg" viewBox="0 0 256 257"><defs><linearGradient id="a" x1="-.828%" x2="57.636%" y1="7.652%" y2="78.411%"><stop offset="0%" stop-color="#41D1FF"/><stop offset="100%" stop-color="#BD34FE"/></linearGradient><linearGradient id="b" x1="43.376%" x2="50.316%" y1="2.242%" y2="89.03%"><stop offset="0%" stop-color="#FFEA83"/><stop offset="8.333%" stop-color="#FFDD35"/><stop offset="100%" stop-color="#FFA800"/></linearGradient></defs><path d="M255.153 37.938L134.897 252.976c-2.483 4.354-8.862 4.434-11.453.15L.875 37.939c-2.907-4.75 1.371-10.646 6.816-9.67l120.385 21.622a6.5 6.5 0 0 0 2.322-.01l117.94-21.57c5.43-.994 9.724 4.852 6.846 9.61z" fill="url(#a)"/><path d="M185.432 1.737L96.44 17.96a3.25 3.25 0 0 0-2.634 3.42l7.462 113.712a3.25 3.25 0 0 0 4.894 2.566l24.81-14.856a6.5 6.5 0 0 1 6.596-.066l22.809 14.38a3.25 3.25 0 0 0 4.878-2.588l2.108-40.412a3.25 3.25 0 0 1 1.043-2.137l45.65-41.35a3.25 3.25 0 0 0-1.881-5.596l-35.174-5.47a3.25 3.25 0 0 1-2.713-2.717l-3.844-28.84a3.25 3.25 0 0 0-3.678-2.816z" fill="url(#b)"/></svg>